G04*
G04 #@! TF.GenerationSoftware,Altium Limited,Altium Designer,18.1.7 (191)*
G04*
G04 Layer_Color=16711935*
%FSLAX25Y25*%
%MOIN*%
G70*
G01*
G75*
%ADD61C,0.00394*%
D61*
X81398Y33169D02*
G03*
X81398Y33169I-1969J0D01*
G01*
X75886Y20374D02*
X92224D01*
X75886Y36713D02*
X92224D01*
Y20374D02*
Y36713D01*
X75886Y20374D02*
Y36713D01*
X60630Y31693D02*
X72441D01*
X60630Y26181D02*
X72441D01*
Y31693D01*
X60630Y26181D02*
Y31693D01*
X54933Y40346D02*
Y51764D01*
X61429Y40346D02*
Y51764D01*
X54933Y40346D02*
X61429D01*
X54933Y51764D02*
X61429D01*
X85827Y49213D02*
X89567D01*
X85827Y42520D02*
X89567D01*
Y49213D01*
X85827Y42520D02*
Y49213D01*
X82776Y42421D02*
Y49311D01*
X79035Y42421D02*
Y49311D01*
X82776D01*
X79035Y42421D02*
X82776D01*
X101870Y38780D02*
X108563D01*
X101870Y42520D02*
X108563D01*
Y38780D02*
Y42520D01*
X101870Y38780D02*
Y42520D01*
X77165Y42224D02*
Y49114D01*
X73425Y42224D02*
Y49114D01*
X77165D01*
X73425Y42224D02*
X77165D01*
X108563Y28909D02*
Y32650D01*
X101870Y28909D02*
Y32650D01*
Y28909D02*
X108563D01*
X101870Y32650D02*
X108563D01*
X101772Y23890D02*
Y27630D01*
X108661Y23890D02*
Y27630D01*
X101772D02*
X108661D01*
X101772Y23890D02*
X108661D01*
X108559Y18815D02*
Y22555D01*
X101866Y18815D02*
Y22555D01*
Y18815D02*
X108559D01*
X101866Y22555D02*
X108559D01*
X108563Y33929D02*
Y37669D01*
X101870Y33929D02*
Y37669D01*
Y33929D02*
X108563D01*
X101870Y37669D02*
X108563D01*
X112106Y40846D02*
X115847D01*
X112106Y47539D02*
X115847D01*
X112106Y40846D02*
Y47539D01*
X115847Y40846D02*
Y47539D01*
X113583Y17323D02*
X117323D01*
X113583Y24016D02*
X117323D01*
X113583Y17323D02*
Y24016D01*
X117323Y17323D02*
Y24016D01*
X129035Y15846D02*
Y19587D01*
X122343Y15846D02*
Y19587D01*
Y15846D02*
X129035D01*
X122343Y19587D02*
X129035D01*
M02*
