G04*
G04 #@! TF.GenerationSoftware,Altium Limited,Altium Designer,18.1.7 (191)*
G04*
G04 Layer_Color=65535*
%FSLAX25Y25*%
%MOIN*%
G70*
G01*
G75*
%ADD10C,0.00787*%
%ADD11C,0.00984*%
%ADD12C,0.00500*%
%ADD13C,0.01000*%
%ADD14C,0.00606*%
D10*
X54075Y46847D02*
G03*
X54075Y46847I-394J0D01*
G01*
X86319Y45079D02*
Y46654D01*
X89075Y45079D02*
Y46654D01*
X104429Y39272D02*
X106004D01*
X104429Y42028D02*
X106004D01*
X120276Y51870D02*
Y58957D01*
X63189Y51870D02*
X120276D01*
X63189D02*
Y58957D01*
X120276D01*
X60630Y26181D02*
X63779D01*
X60630D02*
Y30118D01*
X69291Y26181D02*
X72441D01*
Y30118D01*
X53976Y17717D02*
X76063D01*
Y10630D02*
Y17717D01*
X53976Y10630D02*
X76063D01*
X53976D02*
Y17717D01*
X55819Y53535D02*
X60543D01*
X104429Y29402D02*
X106004D01*
X104429Y32157D02*
X106004D01*
X104425Y19307D02*
X106000D01*
X104425Y22063D02*
X106000D01*
X104429Y34421D02*
X106004D01*
X104429Y37177D02*
X106004D01*
X112598Y43406D02*
Y44980D01*
X115354Y43406D02*
Y44980D01*
X75295Y35433D02*
Y37303D01*
X77165D01*
X90945D02*
X92815D01*
Y35433D02*
Y37303D01*
Y19783D02*
Y21654D01*
X90945Y19783D02*
X92815D01*
X75295D02*
Y21654D01*
Y19783D02*
X77165D01*
X114075Y19882D02*
Y21457D01*
X116831Y19882D02*
Y21457D01*
X124902Y16339D02*
X126476D01*
X124902Y19094D02*
X126476D01*
D11*
X74114Y33661D02*
G03*
X74114Y33661I-492J0D01*
G01*
X73228Y36713D02*
G03*
X73228Y36713I-492J0D01*
G01*
D12*
X51882Y15311D02*
Y54090D01*
X28850Y15311D02*
Y54090D01*
Y15311D02*
X29515D01*
X39210D02*
X42845D01*
X51328D02*
X51882D01*
X28850Y54090D02*
X29515D01*
X39210D02*
X42845D01*
X51328D02*
X51882D01*
D13*
X118307Y20965D02*
Y30020D01*
X119095Y30807D01*
X130512D01*
Y20965D02*
Y30807D01*
X123917Y20965D02*
X130512D01*
X118307D02*
X123917D01*
D14*
X32285Y27827D02*
X35565D01*
X36220Y28483D01*
Y29795D01*
X35565Y30451D01*
X32285D01*
X32941Y34386D02*
X32285Y33730D01*
Y32419D01*
X32941Y31762D01*
X33597D01*
X34253Y32419D01*
Y33730D01*
X34909Y34386D01*
X35565D01*
X36220Y33730D01*
Y32419D01*
X35565Y31762D01*
X32285Y35698D02*
X36220D01*
Y37666D01*
X35565Y38322D01*
X34909D01*
X34253Y37666D01*
Y35698D01*
Y37666D01*
X33597Y38322D01*
X32941D01*
X32285Y37666D01*
Y35698D01*
X32941Y42258D02*
X32285Y41602D01*
Y40290D01*
X32941Y39634D01*
X35565D01*
X36220Y40290D01*
Y41602D01*
X35565Y42258D01*
M02*
