G04*
G04 #@! TF.GenerationSoftware,Altium Limited,Altium Designer,18.1.7 (191)*
G04*
G04 Layer_Color=32768*
%FSLAX25Y25*%
%MOIN*%
G70*
G01*
G75*
%ADD61C,0.00394*%
%ADD62C,0.00197*%
D61*
X84055Y26575D02*
Y30512D01*
X82087Y28543D02*
X86024D01*
X66535Y26969D02*
Y30906D01*
X64567Y28937D02*
X68504D01*
X56213Y46055D02*
X60150D01*
X58181Y44087D02*
Y48024D01*
X55032Y39362D02*
Y52748D01*
X61331Y39362D02*
Y52748D01*
X55032Y39362D02*
X61331D01*
X55032Y52748D02*
X61331D01*
X85532Y50590D02*
X89862D01*
X85532Y41142D02*
X89862D01*
Y50590D01*
X85532Y41142D02*
Y50590D01*
X87697Y43996D02*
Y47736D01*
X85827Y45866D02*
X89567D01*
X79035Y45866D02*
X82776D01*
X80905Y43996D02*
Y47736D01*
X83071Y41142D02*
Y50591D01*
X78740Y41142D02*
Y50591D01*
X83071D01*
X78740Y41142D02*
X83071D01*
X105217Y38780D02*
Y42520D01*
X103347Y40650D02*
X107087D01*
X100492Y38484D02*
X109941D01*
X100492Y42815D02*
X109941D01*
Y38484D02*
Y42815D01*
X100492Y38484D02*
Y42815D01*
X73425Y45669D02*
X77165D01*
X75295Y43799D02*
Y47539D01*
X77461Y40945D02*
Y50394D01*
X73130Y40945D02*
Y50394D01*
X77461D01*
X73130Y40945D02*
X77461D01*
X109941Y28614D02*
Y32945D01*
X100492Y28614D02*
Y32945D01*
Y28614D02*
X109941D01*
X100492Y32945D02*
X109941D01*
X103347Y30779D02*
X107087D01*
X105217Y28909D02*
Y32650D01*
X100492Y23595D02*
Y27925D01*
X109941Y23595D02*
Y27925D01*
X100492D02*
X109941D01*
X100492Y23595D02*
X109941D01*
X103347Y25760D02*
X107087D01*
X105217Y23890D02*
Y27630D01*
X109937Y18520D02*
Y22850D01*
X100488Y18520D02*
Y22850D01*
Y18520D02*
X109937D01*
X100488Y22850D02*
X109937D01*
X103342Y20685D02*
X107083D01*
X105213Y18815D02*
Y22555D01*
X109941Y33634D02*
Y37965D01*
X100492Y33634D02*
Y37965D01*
Y33634D02*
X109941D01*
X100492Y37965D02*
X109941D01*
X103347Y35799D02*
X107087D01*
X105217Y33929D02*
Y37669D01*
X111811Y39469D02*
X116142D01*
X111811Y48917D02*
X116142D01*
X111811Y39469D02*
Y48917D01*
X116142Y39469D02*
Y48917D01*
X113976Y42323D02*
Y46063D01*
X112106Y44193D02*
X115847D01*
X113287Y15945D02*
X117618D01*
X113287Y25394D02*
X117618D01*
X113287Y15945D02*
Y25394D01*
X117618Y15945D02*
Y25394D01*
X115453Y18799D02*
Y22539D01*
X113583Y20669D02*
X117323D01*
X130413Y15551D02*
Y19882D01*
X120965Y15551D02*
Y19882D01*
Y15551D02*
X130413D01*
X120965Y19882D02*
X130413D01*
X123819Y17717D02*
X127559D01*
X125689Y15846D02*
Y19587D01*
D62*
X73721Y18209D02*
X94390D01*
X73721Y38878D02*
X94390D01*
Y18209D02*
Y38878D01*
X73721Y18209D02*
Y38878D01*
X59646Y36516D02*
X73425D01*
X59646Y21358D02*
X73425D01*
Y36516D01*
X59646Y21358D02*
Y36516D01*
M02*
