G04*
G04 #@! TF.GenerationSoftware,Altium Limited,Altium Designer,18.1.7 (191)*
G04*
G04 Layer_Physical_Order=1*
G04 Layer_Color=255*
%FSLAX25Y25*%
%MOIN*%
G70*
G01*
G75*
%ADD10C,0.00787*%
%ADD11C,0.00984*%
%ADD13C,0.01000*%
%ADD36R,0.03543X0.03150*%
%ADD37O,0.00787X0.03347*%
%ADD38R,0.02953X0.01181*%
%ADD39R,0.02953X0.00984*%
%ADD40R,0.03543X0.02756*%
%ADD41R,0.02756X0.03543*%
%ADD42R,0.02087X0.01575*%
%ADD43R,0.09646X0.09449*%
%ADD44R,0.01575X0.02953*%
%ADD45R,0.02362X0.03937*%
%ADD46R,0.05512X0.05512*%
%ADD47R,0.03150X0.03543*%
%ADD48O,0.03347X0.00787*%
%ADD49R,0.10551X0.10551*%
%ADD50R,0.03937X0.03150*%
%ADD51C,0.01968*%
%ADD52C,0.00600*%
%ADD53C,0.00800*%
%ADD54P,0.08523X8X292.5*%
%ADD55O,0.08071X0.04035*%
%ADD56O,0.07284X0.03642*%
%ADD57R,0.03937X0.03937*%
%ADD58C,0.03937*%
%ADD59C,0.01968*%
G36*
X60554Y53816D02*
X60362Y53354D01*
X58681D01*
Y49598D01*
X58181D01*
Y49098D01*
X54425D01*
Y46850D01*
X52153D01*
X51083Y45781D01*
X50126D01*
Y46209D01*
X47650D01*
Y47209D01*
X50126D01*
Y48177D01*
X47650D01*
X45173D01*
Y48004D01*
X43228D01*
Y46512D01*
X42728D01*
Y46012D01*
X40252D01*
Y45669D01*
X35433D01*
X33465Y43701D01*
Y28445D01*
X37648Y24262D01*
X40252D01*
Y23390D01*
X42728D01*
Y22890D01*
X43228D01*
Y21398D01*
X45173D01*
Y21224D01*
X47650D01*
Y20224D01*
X45173D01*
Y20026D01*
X45140D01*
X44403Y19929D01*
X43717Y19645D01*
X43128Y19193D01*
X42676Y18604D01*
X42391Y17918D01*
X42360Y17681D01*
X46961D01*
Y16681D01*
X42360D01*
X42391Y16445D01*
X42676Y15758D01*
X43128Y15169D01*
X43261Y15067D01*
X43091Y14567D01*
X38689D01*
X38614Y14786D01*
X38561Y15067D01*
X39016Y15659D01*
X39320Y16393D01*
X39358Y16681D01*
X29367D01*
X29404Y16393D01*
X29708Y15659D01*
X30163Y15067D01*
X30110Y14786D01*
X30035Y14567D01*
X29134D01*
X28740Y14961D01*
Y53543D01*
X29537Y54340D01*
X29914Y54010D01*
X29708Y53742D01*
X29404Y53008D01*
X29367Y52720D01*
X39358D01*
X39320Y53008D01*
X39016Y53742D01*
X38646Y54224D01*
X38847Y54724D01*
X42948D01*
X43117Y54263D01*
X43122Y54224D01*
X42676Y53643D01*
X42391Y52957D01*
X42360Y52720D01*
X51561D01*
X51530Y52957D01*
X51245Y53643D01*
X50800Y54224D01*
X50805Y54263D01*
X50973Y54724D01*
X59646D01*
X60554Y53816D01*
D02*
G37*
G36*
X72423Y39355D02*
X72523Y39255D01*
X72523Y39255D01*
X72801Y39069D01*
X73130Y39004D01*
X73130Y39004D01*
X78435D01*
X79035Y38976D01*
X79724Y38287D01*
Y34449D01*
X75350D01*
X72047Y36614D01*
X56693D01*
X54669Y38638D01*
X48560D01*
X48493Y38722D01*
X48339Y39138D01*
X48443Y39294D01*
X48508Y39622D01*
X48443Y39951D01*
X48339Y40106D01*
X48493Y40522D01*
X48560Y40606D01*
X50250D01*
X50886Y41237D01*
X50886Y43615D01*
X53137Y45866D01*
X64862D01*
X72423Y39355D01*
D02*
G37*
G36*
X157185Y50984D02*
Y39961D01*
X154134Y36909D01*
X154035Y37008D01*
X141000D01*
X132929Y45079D01*
X122047D01*
Y50263D01*
X126772Y53445D01*
X154724D01*
X157185Y50984D01*
D02*
G37*
G36*
X131102Y33476D02*
X122315D01*
Y35034D01*
X124918Y37637D01*
X125104Y37916D01*
X125170Y38244D01*
X125104Y38573D01*
X124918Y38851D01*
X124640Y39037D01*
X124311Y39103D01*
X123982Y39037D01*
X123704Y38851D01*
X120850Y35997D01*
X120663Y35718D01*
X120598Y35390D01*
X120598Y35390D01*
Y33476D01*
X112587D01*
X112205Y33858D01*
X112205Y42913D01*
X131102D01*
X131102Y33476D01*
D02*
G37*
%LPC*%
G36*
X57681Y53354D02*
X54425D01*
Y50098D01*
X57681D01*
Y53354D01*
D02*
G37*
G36*
X51561Y51720D02*
X42360D01*
X42391Y51484D01*
X42676Y50798D01*
X43128Y50209D01*
X43717Y49757D01*
X44403Y49472D01*
X45140Y49375D01*
X45173D01*
Y49177D01*
X47650D01*
X50126D01*
Y49724D01*
X50204Y49757D01*
X50793Y50209D01*
X51245Y50798D01*
X51530Y51484D01*
X51561Y51720D01*
D02*
G37*
G36*
X39358D02*
X34862D01*
Y49177D01*
X36380D01*
X37168Y49280D01*
X37902Y49584D01*
X38532Y50068D01*
X39016Y50699D01*
X39320Y51433D01*
X39358Y51720D01*
D02*
G37*
G36*
X33862D02*
X29367D01*
X29404Y51433D01*
X29708Y50699D01*
X30192Y50068D01*
X30823Y49584D01*
X31557Y49280D01*
X32344Y49177D01*
X33862D01*
Y51720D01*
D02*
G37*
G36*
X42228Y48004D02*
X40252D01*
Y47012D01*
X42228D01*
Y48004D01*
D02*
G37*
G36*
Y22390D02*
X40252D01*
Y21398D01*
X42228D01*
Y22390D01*
D02*
G37*
G36*
X36380Y20225D02*
X34862D01*
Y17681D01*
X39358D01*
X39320Y17969D01*
X39016Y18703D01*
X38532Y19333D01*
X37902Y19817D01*
X37168Y20121D01*
X36380Y20225D01*
D02*
G37*
G36*
X33862D02*
X32344D01*
X31557Y20121D01*
X30823Y19817D01*
X30192Y19333D01*
X29708Y18703D01*
X29404Y17969D01*
X29367Y17681D01*
X33862D01*
Y20225D01*
D02*
G37*
%LPD*%
D10*
X58237Y22011D02*
G03*
X58237Y20897I557J-557D01*
G01*
X56010Y23124D02*
G03*
X57123Y23124I557J557D01*
G01*
X58927Y23814D02*
G03*
X57813Y23814I-557J-557D01*
G01*
X58927Y22701D02*
G03*
X58927Y23814I-557J557D01*
G01*
X40398Y36669D02*
X42728D01*
X44937Y35685D02*
X47650D01*
X42728Y33476D02*
X44937Y35685D01*
X45921Y33716D02*
X47650D01*
X98327Y36122D02*
X102264Y40059D01*
Y40650D01*
X98327Y34055D02*
Y36122D01*
X91732Y33465D02*
X97736D01*
X98327Y34055D01*
X53543Y25591D02*
X54872Y24262D01*
X59350Y19783D02*
X63743D01*
X54872Y24262D02*
X56010Y23124D01*
X58237Y22011D02*
X58927Y22701D01*
X57123Y23124D02*
X57813Y23814D01*
X58237Y20897D02*
X58794Y20340D01*
X59350Y19783D01*
X65551Y16142D02*
X67520Y14173D01*
X65551Y16142D02*
Y17975D01*
X63743Y19783D02*
X65551Y17975D01*
X53543Y25591D02*
Y33286D01*
X51341Y35488D02*
X53543Y33286D01*
X49716Y35488D02*
X51341D01*
X53939Y22968D02*
X58698Y18209D01*
X63976Y15630D02*
Y17323D01*
X63091Y18209D02*
X63976Y17323D01*
X58698Y18209D02*
X63091D01*
X51968Y24938D02*
X53939Y22968D01*
X51968Y24938D02*
Y32634D01*
X50689Y33913D02*
X51968Y32634D01*
X49716Y33913D02*
X50689D01*
X62520Y14173D02*
X63976Y15630D01*
X49520Y33716D02*
X49716Y33913D01*
X49520Y35685D02*
X49716Y35488D01*
X47650Y35685D02*
X49520D01*
X42728Y32732D02*
Y33476D01*
Y32732D02*
X43247D01*
X47650Y33716D02*
X49520D01*
X42728Y36669D02*
X42773Y36714D01*
D11*
X57331Y14173D02*
X57520D01*
X49968Y21536D02*
X57331Y14173D01*
X49968Y21536D02*
Y29418D01*
X49606Y29779D02*
X49968Y29418D01*
X47650Y29779D02*
X49606D01*
X83071Y29528D02*
Y36220D01*
X79134Y23622D02*
X84055Y28543D01*
X85039Y20866D02*
Y27559D01*
X84055Y28543D02*
X85039Y27559D01*
X68533Y23622D02*
X72441D01*
X67942Y24213D02*
X68533Y23622D01*
X66535Y24213D02*
X67942D01*
X67913Y34350D02*
X68602Y33661D01*
X40945Y40606D02*
X42728D01*
X40157Y28795D02*
X42728D01*
X39370Y30819D02*
Y31496D01*
Y30819D02*
X39425Y30764D01*
X80835Y41016D02*
Y43472D01*
X75000Y43406D02*
X80768D01*
X76378Y29528D02*
X81890D01*
X132382Y17717D02*
X138779Y24114D01*
Y33858D01*
X122736Y17717D02*
X127362Y22343D01*
Y23720D01*
X128642Y17717D02*
X132382D01*
X112697Y17717D02*
X115453D01*
X120866Y23130D02*
X121457Y23720D01*
X115256Y23130D02*
X120866D01*
X127362Y23720D02*
X128248Y22835D01*
X121457Y35390D02*
X124311Y38244D01*
X121457Y28051D02*
Y35390D01*
X68602Y33661D02*
X70276D01*
X71260Y27559D02*
X72618D01*
X72716Y27657D01*
X72815Y27559D01*
X65945Y30512D02*
X71732D01*
X62795Y33661D02*
X65945Y30512D01*
X58169Y33661D02*
X62795D01*
X77165Y51968D02*
X84252Y44882D01*
X85039Y36220D02*
Y40161D01*
X84252Y40949D02*
X85039Y40161D01*
X84252Y40949D02*
Y44882D01*
X83071Y36220D02*
Y38780D01*
X80835Y41016D02*
X83071Y38780D01*
X75224Y51968D02*
X77165D01*
X71681Y45598D02*
X75000Y48917D01*
X73130Y39862D02*
X79528D01*
X71681Y41311D02*
X73130Y39862D01*
X79528D02*
X81102Y38287D01*
X84350Y47355D02*
X87697Y44009D01*
X108169Y40650D02*
Y44587D01*
X83465Y51870D02*
X84350Y50984D01*
Y47355D02*
Y50984D01*
X76681Y55512D02*
X80323Y51870D01*
X83465D01*
X87697Y43209D02*
Y44009D01*
X87008Y42520D02*
X87697Y43209D01*
X80768Y43406D02*
X80835Y43472D01*
X66681Y55512D02*
X70618Y51575D01*
X72342D01*
X75000Y48917D01*
X71681Y41311D02*
Y45598D01*
Y55512D02*
X75224Y51968D01*
X71681Y54598D02*
Y55512D01*
X87008Y36220D02*
Y42520D01*
X81102Y36220D02*
Y38287D01*
X71732Y30512D02*
X72716Y31496D01*
X54177Y37654D02*
X58169Y33661D01*
X72441Y23622D02*
X76378D01*
X72441Y14252D02*
X72520Y14173D01*
X72441Y14252D02*
Y23622D01*
X72815Y25886D02*
X73110Y25591D01*
X76378D01*
X72815Y25886D02*
Y27559D01*
X83071Y29528D02*
X84055Y28543D01*
X72716Y31496D02*
Y33188D01*
X72993Y33465D01*
X76378D01*
X72716Y31496D02*
X76378D01*
X72815Y27559D02*
X76378D01*
Y23622D02*
X79134D01*
X86221Y26378D02*
X88976Y23622D01*
X91732D01*
X88976Y20866D02*
Y23622D01*
X47650Y37654D02*
X54177D01*
X39425Y30764D02*
X42728D01*
X45406Y29779D02*
X47650D01*
X44421Y28795D02*
X45406Y29779D01*
X42728Y28795D02*
X44421D01*
X44724Y22890D02*
X44921Y22693D01*
X42728Y22890D02*
X44724D01*
X44921Y22693D02*
X47650D01*
X45839Y39622D02*
X47650D01*
X44854Y40606D02*
X45839Y39622D01*
X42728Y40606D02*
X44854D01*
X45059Y46709D02*
X47650D01*
X44862Y46512D02*
X45059Y46709D01*
X42728Y46512D02*
X44862D01*
D13*
X113976Y47146D02*
X114032Y47201D01*
X120472D01*
X108169Y30779D02*
Y35799D01*
D36*
X80905Y43110D02*
D03*
Y48622D02*
D03*
X75295Y48425D02*
D03*
Y42913D02*
D03*
D37*
X79134Y20866D02*
D03*
X81102D02*
D03*
X83071D02*
D03*
X85039D02*
D03*
X87008D02*
D03*
X88976D02*
D03*
Y36220D02*
D03*
X87008D02*
D03*
X85039D02*
D03*
X83071D02*
D03*
X81102D02*
D03*
X79134D02*
D03*
D38*
X47650Y48677D02*
D03*
Y20724D02*
D03*
D39*
Y46709D02*
D03*
Y43559D02*
D03*
Y41591D02*
D03*
Y39622D02*
D03*
Y37654D02*
D03*
Y35685D02*
D03*
Y33716D02*
D03*
Y31748D02*
D03*
Y29779D02*
D03*
Y27811D02*
D03*
Y25842D02*
D03*
Y22693D02*
D03*
X42728Y22890D02*
D03*
Y24858D02*
D03*
Y26827D02*
D03*
Y28795D02*
D03*
Y30764D02*
D03*
Y32732D02*
D03*
Y36669D02*
D03*
Y38638D02*
D03*
Y40606D02*
D03*
Y42575D02*
D03*
Y44543D02*
D03*
Y46512D02*
D03*
D40*
X87697Y42913D02*
D03*
Y48819D02*
D03*
X113976Y41240D02*
D03*
Y47146D02*
D03*
X115453Y17717D02*
D03*
Y23622D02*
D03*
D41*
X108169Y40650D02*
D03*
X102264D02*
D03*
X108169Y30779D02*
D03*
X102264D02*
D03*
X108165Y20685D02*
D03*
X102260D02*
D03*
X108169Y35799D02*
D03*
X102264D02*
D03*
X128642Y17717D02*
D03*
X122736D02*
D03*
D42*
X130118Y41197D02*
D03*
X118504D02*
D03*
D43*
X124311Y38244D02*
D03*
D44*
X120472Y47201D02*
D03*
X123031D02*
D03*
X125591D02*
D03*
X128150D02*
D03*
D45*
X66535Y24213D02*
D03*
X62795Y33661D02*
D03*
X70276D02*
D03*
D46*
X58181Y49598D02*
D03*
Y42512D02*
D03*
D47*
X102461Y25760D02*
D03*
X107973D02*
D03*
D48*
X76378Y33465D02*
D03*
Y31496D02*
D03*
Y29528D02*
D03*
Y27559D02*
D03*
Y25591D02*
D03*
Y23622D02*
D03*
X91732D02*
D03*
Y25591D02*
D03*
Y27559D02*
D03*
Y29528D02*
D03*
Y31496D02*
D03*
Y33465D02*
D03*
D49*
X84055Y28543D02*
D03*
D50*
X121457Y28051D02*
D03*
Y23720D02*
D03*
X127362Y28051D02*
D03*
Y23720D02*
D03*
D51*
X35827Y38953D02*
X37480Y40606D01*
X35827Y30315D02*
Y38953D01*
X37480Y40606D02*
X40945D01*
X35827Y30315D02*
X37346Y28795D01*
X40157D01*
D52*
X88976Y36220D02*
X96949D01*
X100236Y39507D01*
X101681Y55512D02*
X103543Y53650D01*
Y52126D02*
Y53650D01*
Y52126D02*
X104685Y50984D01*
Y45349D02*
Y50984D01*
X106681Y52055D02*
Y55512D01*
X105748Y51122D02*
X106681Y52055D01*
X105748Y45019D02*
Y51122D01*
X100236Y39507D02*
Y42691D01*
X100394Y42848D01*
Y51799D01*
X96681Y55512D02*
X100394Y51799D01*
X103572Y16013D02*
X105709Y18150D01*
Y18898D01*
X81329Y16013D02*
X103572D01*
X105709Y18898D02*
X105748Y45019D01*
X102889Y16963D02*
X104724Y18799D01*
X82348Y16963D02*
X102889D01*
X104685Y45349D02*
X104724Y18799D01*
X79134Y18209D02*
X81329Y16013D01*
X79134Y18209D02*
Y20866D01*
X81102Y18209D02*
Y20866D01*
Y18209D02*
X82348Y16963D01*
D53*
X112697Y27854D02*
Y30315D01*
X110602Y25760D02*
X112697Y27854D01*
X92520Y41929D02*
Y46752D01*
X90453Y48819D02*
X92520Y46752D01*
X87697Y48819D02*
X90453D01*
X94390Y41043D02*
Y47539D01*
X92815Y39469D02*
X94390Y41043D01*
X90551Y51378D02*
X94390Y47539D01*
X127362Y28051D02*
X131398D01*
X107973Y25760D02*
X110602D01*
X91732Y52658D02*
X95965Y48425D01*
X89990Y52658D02*
X91732D01*
X87136Y55512D02*
X89990Y52658D01*
X85815Y51378D02*
X90551D01*
X81681Y55512D02*
X85815Y51378D01*
X102264Y30779D02*
X102461Y30583D01*
Y25760D02*
Y30583D01*
X107973Y25760D02*
X108165Y25567D01*
Y20685D02*
Y25567D01*
X99588Y18013D02*
X102082Y20507D01*
X83463Y18013D02*
X99588D01*
X83071Y18406D02*
X83463Y18013D01*
X83071Y18406D02*
Y20866D01*
X111614Y47146D02*
X113976D01*
X110728Y46260D02*
X111614Y47146D01*
X110728Y36909D02*
Y46260D01*
X109618Y35799D02*
X110728Y36909D01*
X108169Y35799D02*
X109618D01*
X92815Y38465D02*
Y39469D01*
X95965Y39469D02*
Y48425D01*
X92126Y55512D02*
X98528Y49109D01*
Y40652D02*
Y49109D01*
X86681Y55512D02*
X87136D01*
X91681D02*
X92126D01*
X91732Y25591D02*
X97342D01*
X91732Y27559D02*
X94488D01*
X91732Y31496D02*
X94587D01*
X91732Y29528D02*
X98917D01*
X99705Y30315D01*
Y34941D01*
X100563Y35799D01*
X102264D01*
D54*
X148917Y26476D02*
D03*
Y46161D02*
D03*
D55*
X34362Y52220D02*
D03*
Y17181D02*
D03*
D56*
X46961Y52220D02*
D03*
Y17181D02*
D03*
D57*
X116732Y55413D02*
D03*
X72520Y14173D02*
D03*
D58*
X111732Y55413D02*
D03*
X106732D02*
D03*
X101732D02*
D03*
X96732D02*
D03*
X91732D02*
D03*
X86732D02*
D03*
X81732D02*
D03*
X76732D02*
D03*
X71732D02*
D03*
X66732D02*
D03*
X67520Y14173D02*
D03*
X62520D02*
D03*
X57520D02*
D03*
D59*
X57123Y39951D02*
D03*
Y42512D02*
D03*
X36614Y41732D02*
D03*
X39016Y41929D02*
D03*
X40398Y36669D02*
D03*
X45921Y33716D02*
D03*
X39370Y31496D02*
D03*
X54425Y40106D02*
D03*
Y42569D02*
D03*
X120866Y37626D02*
D03*
Y34941D02*
D03*
X124311Y34990D02*
D03*
X124409Y37555D02*
D03*
X127488D02*
D03*
Y34941D02*
D03*
X115453D02*
D03*
Y37626D02*
D03*
X118110Y34941D02*
D03*
Y37654D02*
D03*
X112697Y30315D02*
D03*
X135630Y43898D02*
D03*
X92520Y41929D02*
D03*
X131398Y28051D02*
D03*
X138779Y33858D02*
D03*
X112697Y17717D02*
D03*
X71260Y27559D02*
D03*
X68307Y34350D02*
D03*
X108169Y44587D02*
D03*
X92815Y38465D02*
D03*
X95965Y39469D02*
D03*
X98528Y40652D02*
D03*
X97342Y25591D02*
D03*
X94488Y27559D02*
D03*
X94587Y31496D02*
D03*
X81890Y30709D02*
D03*
X86221D02*
D03*
X81890Y26378D02*
D03*
X86221D02*
D03*
M02*
