G04*
G04 #@! TF.GenerationSoftware,Altium Limited,Altium Designer,18.1.7 (191)*
G04*
G04 Layer_Color=32896*
%FSLAX25Y25*%
%MOIN*%
G70*
G01*
G75*
%ADD12C,0.01000*%
%ADD15C,0.00004*%
%ADD16C,0.00394*%
D12*
X164665Y9190D02*
Y60371D01*
X133169Y44623D02*
Y60371D01*
X164665D01*
X133169Y9190D02*
Y44623D01*
Y9190D02*
X164665D01*
X158799Y14252D02*
Y55512D01*
X28373Y14173D02*
X158720D01*
X28400Y55512D02*
X158799D01*
X28400Y14200D02*
Y55512D01*
D15*
X49815Y17181D02*
G03*
X48929Y18067I-886J0D01*
G01*
Y16295D02*
G03*
X49815Y17181I0J886D01*
G01*
X44106D02*
G03*
X44992Y16295I886J0D01*
G01*
Y18067D02*
G03*
X44106Y17181I0J-886D01*
G01*
X49815Y52220D02*
G03*
X48929Y53106I-886J0D01*
G01*
Y51335D02*
G03*
X49815Y52220I0J886D01*
G01*
X44106D02*
G03*
X44992Y51335I886J0D01*
G01*
Y53106D02*
G03*
X44106Y52220I0J-886D01*
G01*
X37610Y17181D02*
G03*
X36724Y18067I-886J0D01*
G01*
Y16295D02*
G03*
X37610Y17181I0J886D01*
G01*
X31114D02*
G03*
X32000Y16295I886J0D01*
G01*
Y18067D02*
G03*
X31114Y17181I0J-886D01*
G01*
X37610Y52220D02*
G03*
X36724Y53106I-886J0D01*
G01*
Y51335D02*
G03*
X37610Y52220I0J886D01*
G01*
X31114D02*
G03*
X32000Y51335I886J0D01*
G01*
Y53106D02*
G03*
X31114Y52220I0J-886D01*
G01*
X44992Y16295D02*
X48929D01*
X44992Y18067D02*
X48929D01*
X44992Y51335D02*
X48929D01*
X44992Y53106D02*
X48929D01*
X32000Y16295D02*
X36724D01*
X32000Y18067D02*
X36724D01*
X32000Y51335D02*
X36724D01*
X32000Y53106D02*
X36724D01*
D16*
X137913Y31009D02*
X139487D01*
X138700Y30221D02*
Y31796D01*
M02*
