G04*
G04 #@! TF.GenerationSoftware,Altium Limited,Altium Designer,18.1.7 (191)*
G04*
G04 Layer_Color=16711935*
%FSLAX25Y25*%
%MOIN*%
G70*
G01*
G75*
%ADD60C,0.00004*%
D60*
X49815Y17181D02*
G03*
X48929Y18067I-886J0D01*
G01*
Y16295D02*
G03*
X49815Y17181I0J886D01*
G01*
X44106D02*
G03*
X44992Y16295I886J0D01*
G01*
Y18067D02*
G03*
X44106Y17181I0J-886D01*
G01*
X49815Y52220D02*
G03*
X48929Y53106I-886J0D01*
G01*
Y51335D02*
G03*
X49815Y52220I0J886D01*
G01*
X44106D02*
G03*
X44992Y51335I886J0D01*
G01*
Y53106D02*
G03*
X44106Y52220I0J-886D01*
G01*
X37610Y17181D02*
G03*
X36724Y18067I-886J0D01*
G01*
Y16295D02*
G03*
X37610Y17181I0J886D01*
G01*
X31114D02*
G03*
X32000Y16295I886J0D01*
G01*
Y18067D02*
G03*
X31114Y17181I0J-886D01*
G01*
X37610Y52220D02*
G03*
X36724Y53106I-886J0D01*
G01*
Y51335D02*
G03*
X37610Y52220I0J886D01*
G01*
X31114D02*
G03*
X32000Y51335I886J0D01*
G01*
Y53106D02*
G03*
X31114Y52220I0J-886D01*
G01*
X44992Y16295D02*
X48929D01*
X44992Y18067D02*
X48929D01*
X44992Y51335D02*
X48929D01*
X44992Y53106D02*
X48929D01*
X32000Y16295D02*
X36724D01*
X32000Y18067D02*
X36724D01*
X32000Y51335D02*
X36724D01*
X32000Y53106D02*
X36724D01*
M02*
