G04*
G04 #@! TF.GenerationSoftware,Altium Limited,Altium Designer,18.1.7 (191)*
G04*
G04 Layer_Color=8421504*
%FSLAX25Y25*%
%MOIN*%
G70*
G01*
G75*
%ADD12C,0.01000*%
%ADD15C,0.00004*%
%ADD16C,0.00394*%
%ADD17R,0.05906X0.05906*%
%ADD18R,0.10551X0.10551*%
%ADD19O,0.00787X0.03347*%
%ADD20O,0.03347X0.00787*%
%ADD21R,0.03937X0.03150*%
%ADD22R,0.02362X0.03937*%
%ADD23R,0.05512X0.05512*%
%ADD24R,0.02953X0.00984*%
%ADD25R,0.02953X0.01181*%
%ADD26R,0.01575X0.02953*%
%ADD27R,0.02087X0.01575*%
%ADD28R,0.09646X0.09449*%
%ADD29R,0.03543X0.02756*%
%ADD30R,0.03543X0.03150*%
%ADD31R,0.02756X0.03543*%
%ADD32R,0.03150X0.03543*%
D12*
X158799Y14252D02*
Y55512D01*
X28373Y14173D02*
X158720D01*
X28400Y55512D02*
X158799D01*
X28400Y14200D02*
Y55512D01*
D15*
X49815Y17181D02*
G03*
X48929Y18067I-886J0D01*
G01*
Y16295D02*
G03*
X49815Y17181I0J886D01*
G01*
X44106D02*
G03*
X44992Y16295I886J0D01*
G01*
Y18067D02*
G03*
X44106Y17181I0J-886D01*
G01*
X49815Y52220D02*
G03*
X48929Y53106I-886J0D01*
G01*
Y51335D02*
G03*
X49815Y52220I0J886D01*
G01*
X44106D02*
G03*
X44992Y51335I886J0D01*
G01*
Y53106D02*
G03*
X44106Y52220I0J-886D01*
G01*
X37610Y17181D02*
G03*
X36724Y18067I-886J0D01*
G01*
Y16295D02*
G03*
X37610Y17181I0J886D01*
G01*
X31114D02*
G03*
X32000Y16295I886J0D01*
G01*
Y18067D02*
G03*
X31114Y17181I0J-886D01*
G01*
X37610Y52220D02*
G03*
X36724Y53106I-886J0D01*
G01*
Y51335D02*
G03*
X37610Y52220I0J886D01*
G01*
X31114D02*
G03*
X32000Y51335I886J0D01*
G01*
Y53106D02*
G03*
X31114Y52220I0J-886D01*
G01*
X44992Y16295D02*
X48929D01*
X44992Y18067D02*
X48929D01*
X44992Y51335D02*
X48929D01*
X44992Y53106D02*
X48929D01*
X32000Y16295D02*
X36724D01*
X32000Y18067D02*
X36724D01*
X32000Y51335D02*
X36724D01*
X32000Y53106D02*
X36724D01*
D16*
X137913Y31009D02*
X139487D01*
X138700Y30221D02*
Y31796D01*
D17*
Y37898D02*
D03*
Y24119D02*
D03*
D18*
X84055Y28543D02*
D03*
D19*
X79134Y36220D02*
D03*
X81102D02*
D03*
X83071D02*
D03*
X85039D02*
D03*
X87008D02*
D03*
X88976D02*
D03*
Y20866D02*
D03*
X87008D02*
D03*
X85039D02*
D03*
X83071D02*
D03*
X81102D02*
D03*
X79134D02*
D03*
D20*
X91732Y33465D02*
D03*
Y31496D02*
D03*
Y29528D02*
D03*
Y27559D02*
D03*
Y25591D02*
D03*
Y23622D02*
D03*
X76378D02*
D03*
Y25591D02*
D03*
Y27559D02*
D03*
Y29528D02*
D03*
Y31496D02*
D03*
Y33465D02*
D03*
D21*
X127362Y23720D02*
D03*
Y28051D02*
D03*
X121457Y23720D02*
D03*
Y28051D02*
D03*
D22*
X70276Y33661D02*
D03*
X62795D02*
D03*
X66535Y24213D02*
D03*
D23*
X58181Y42512D02*
D03*
Y49598D02*
D03*
D24*
X42728Y46512D02*
D03*
Y44543D02*
D03*
Y42575D02*
D03*
Y40606D02*
D03*
Y38638D02*
D03*
Y36669D02*
D03*
Y32732D02*
D03*
Y30764D02*
D03*
Y28795D02*
D03*
Y26827D02*
D03*
Y24858D02*
D03*
Y22890D02*
D03*
X47650Y22693D02*
D03*
Y25842D02*
D03*
Y27811D02*
D03*
Y29779D02*
D03*
Y31748D02*
D03*
Y33716D02*
D03*
Y35685D02*
D03*
Y37654D02*
D03*
Y39622D02*
D03*
Y41591D02*
D03*
Y43559D02*
D03*
Y46709D02*
D03*
D25*
Y20724D02*
D03*
Y48677D02*
D03*
D26*
X128150Y47201D02*
D03*
X125591D02*
D03*
X123031D02*
D03*
X120472D02*
D03*
D27*
X118504Y41197D02*
D03*
X130118D02*
D03*
D28*
X124311Y38244D02*
D03*
D29*
X87697Y48819D02*
D03*
Y42913D02*
D03*
X113976Y41240D02*
D03*
Y47146D02*
D03*
X115453Y17717D02*
D03*
Y23622D02*
D03*
D30*
X80905Y48622D02*
D03*
Y43110D02*
D03*
X75295Y48425D02*
D03*
Y42913D02*
D03*
D31*
X108169Y40650D02*
D03*
X102264D02*
D03*
X108169Y30779D02*
D03*
X102264D02*
D03*
X108165Y20685D02*
D03*
X102260D02*
D03*
X108169Y35799D02*
D03*
X102264D02*
D03*
X128642Y17717D02*
D03*
X122736D02*
D03*
D32*
X102461Y25760D02*
D03*
X107973D02*
D03*
M02*
