G04*
G04 #@! TF.GenerationSoftware,Altium Limited,Altium Designer,18.1.7 (191)*
G04*
G04 Layer_Color=16711935*
%FSLAX25Y25*%
%MOIN*%
G70*
G01*
G75*
%ADD12C,0.01000*%
%ADD15C,0.00004*%
%ADD16C,0.00394*%
%ADD49R,0.03937X0.01968*%
%ADD50R,0.01968X0.03937*%
%ADD51R,0.04737X0.02769*%
%ADD52C,0.00100*%
%ADD53P,0.09389X8X292.5*%
%ADD54O,0.08083X0.04442*%
%ADD55O,0.08871X0.04835*%
%ADD56C,0.02769*%
D12*
X158799Y14252D02*
Y55512D01*
X28373Y14173D02*
X158720D01*
X28400Y55512D02*
X158799D01*
X28400Y14200D02*
Y55512D01*
D15*
X49815Y17181D02*
G03*
X48929Y18067I-886J0D01*
G01*
Y16295D02*
G03*
X49815Y17181I0J886D01*
G01*
X44106D02*
G03*
X44992Y16295I886J0D01*
G01*
Y18067D02*
G03*
X44106Y17181I0J-886D01*
G01*
X49815Y52220D02*
G03*
X48929Y53106I-886J0D01*
G01*
Y51335D02*
G03*
X49815Y52220I0J886D01*
G01*
X44106D02*
G03*
X44992Y51335I886J0D01*
G01*
Y53106D02*
G03*
X44106Y52220I0J-886D01*
G01*
X37610Y17181D02*
G03*
X36724Y18067I-886J0D01*
G01*
Y16295D02*
G03*
X37610Y17181I0J886D01*
G01*
X31114D02*
G03*
X32000Y16295I886J0D01*
G01*
Y18067D02*
G03*
X31114Y17181I0J-886D01*
G01*
X37610Y52220D02*
G03*
X36724Y53106I-886J0D01*
G01*
Y51335D02*
G03*
X37610Y52220I0J886D01*
G01*
X31114D02*
G03*
X32000Y51335I886J0D01*
G01*
Y53106D02*
G03*
X31114Y52220I0J-886D01*
G01*
X44992Y16295D02*
X48929D01*
X44992Y18067D02*
X48929D01*
X44992Y51335D02*
X48929D01*
X44992Y53106D02*
X48929D01*
X32000Y16295D02*
X36724D01*
X32000Y18067D02*
X36724D01*
X32000Y51335D02*
X36724D01*
X32000Y53106D02*
X36724D01*
D16*
X137913Y31009D02*
X139487D01*
X138700Y30221D02*
Y31796D01*
D49*
X102580Y54516D02*
D03*
X107600Y54516D02*
D03*
X117639D02*
D03*
X112620Y54516D02*
D03*
X92541Y54516D02*
D03*
X97561Y54516D02*
D03*
X87521D02*
D03*
X82502Y54516D02*
D03*
X72462D02*
D03*
X77482Y54516D02*
D03*
X67443D02*
D03*
D50*
X157815Y26772D02*
D03*
X157815Y31791D02*
D03*
X157815Y21752D02*
D03*
X157815Y16732D02*
D03*
X157816Y48020D02*
D03*
X157816Y53039D02*
D03*
X157816Y43000D02*
D03*
X157816Y37980D02*
D03*
D51*
X57461Y15157D02*
D03*
X62480D02*
D03*
X72520D02*
D03*
X67500D02*
D03*
D52*
X102580Y55500D02*
D03*
X107600D02*
D03*
X117639D02*
D03*
X112620D02*
D03*
X92541D02*
D03*
X97561D02*
D03*
X87521D02*
D03*
X82502D02*
D03*
X72462D02*
D03*
X77482D02*
D03*
X67443D02*
D03*
X158799Y26772D02*
D03*
Y31791D02*
D03*
Y21752D02*
D03*
Y16732D02*
D03*
X158800Y48020D02*
D03*
Y53039D02*
D03*
Y43000D02*
D03*
Y37980D02*
D03*
X57461Y14173D02*
D03*
X62480D02*
D03*
X72520D02*
D03*
X67500D02*
D03*
D53*
X148917Y44623D02*
D03*
Y24938D02*
D03*
D54*
X46961Y17181D02*
D03*
Y52220D02*
D03*
D55*
X34362Y17181D02*
D03*
Y52220D02*
D03*
D56*
X132800Y17800D02*
D03*
X110407Y51950D02*
D03*
X39037Y20165D02*
D03*
X34362Y22933D02*
D03*
X31594Y23031D02*
D03*
Y25799D02*
D03*
X34350Y25787D02*
D03*
X42028Y20079D02*
D03*
X37402Y22835D02*
D03*
X73819Y29528D02*
D03*
X68405Y28839D02*
D03*
X86221Y26378D02*
D03*
X81890D02*
D03*
X86221Y30709D02*
D03*
X81890D02*
D03*
X35473Y36812D02*
D03*
X35528Y34100D02*
D03*
X59543Y40005D02*
D03*
Y42466D02*
D03*
X57123Y39951D02*
D03*
Y42512D02*
D03*
X36614Y41732D02*
D03*
X39016Y41929D02*
D03*
X40398Y36669D02*
D03*
X45921Y33716D02*
D03*
X39370Y31496D02*
D03*
X54425Y40106D02*
D03*
Y42569D02*
D03*
X120866Y37626D02*
D03*
Y34941D02*
D03*
X124311Y34990D02*
D03*
X124409Y37555D02*
D03*
X127488D02*
D03*
Y34941D02*
D03*
X115453D02*
D03*
Y37626D02*
D03*
X118110Y34941D02*
D03*
Y37654D02*
D03*
X112697Y30315D02*
D03*
X135630Y43898D02*
D03*
X92520Y41929D02*
D03*
X131398Y28051D02*
D03*
X112697Y17717D02*
D03*
X68307Y34350D02*
D03*
X108169Y44587D02*
D03*
X92815Y38465D02*
D03*
X95965Y39469D02*
D03*
X98528Y40652D02*
D03*
X97342Y25591D02*
D03*
X94488Y27559D02*
D03*
X94587Y31496D02*
D03*
M02*
