G04*
G04 #@! TF.GenerationSoftware,Altium Limited,Altium Designer,18.1.7 (191)*
G04*
G04 Layer_Color=8388736*
%FSLAX25Y25*%
%MOIN*%
G70*
G01*
G75*
%ADD15R,0.11351X0.11351*%
%ADD16O,0.01587X0.04147*%
%ADD17O,0.04147X0.01587*%
%ADD18R,0.04737X0.03950*%
%ADD19R,0.03162X0.04737*%
%ADD20R,0.06312X0.06312*%
%ADD21R,0.03753X0.01784*%
%ADD22R,0.03753X0.01981*%
%ADD23R,0.02375X0.03753*%
%ADD24R,0.02887X0.02375*%
%ADD25R,0.10446X0.10249*%
%ADD26R,0.04343X0.03556*%
%ADD27R,0.04343X0.03950*%
%ADD28R,0.03556X0.04343*%
%ADD29R,0.03950X0.04343*%
%ADD30R,0.03937X0.01968*%
%ADD31R,0.01968X0.03937*%
%ADD32R,0.04737X0.02769*%
%ADD33C,0.00100*%
%ADD34P,0.09389X8X292.5*%
%ADD35O,0.08083X0.04442*%
%ADD36O,0.08871X0.04835*%
%ADD37C,0.02769*%
D15*
X84055Y28543D02*
D03*
D16*
X79134Y36220D02*
D03*
X81102D02*
D03*
X83071D02*
D03*
X85039D02*
D03*
X87008D02*
D03*
X88976D02*
D03*
Y20866D02*
D03*
X87008D02*
D03*
X85039D02*
D03*
X83071D02*
D03*
X81102D02*
D03*
X79134D02*
D03*
D17*
X91732Y33465D02*
D03*
Y31496D02*
D03*
Y29528D02*
D03*
Y27559D02*
D03*
Y25591D02*
D03*
Y23622D02*
D03*
X76378D02*
D03*
Y25591D02*
D03*
Y27559D02*
D03*
Y29528D02*
D03*
Y31496D02*
D03*
Y33465D02*
D03*
D18*
X127362Y23720D02*
D03*
Y28051D02*
D03*
X121457Y23720D02*
D03*
Y28051D02*
D03*
D19*
X70276Y33661D02*
D03*
X62795D02*
D03*
X66535Y24213D02*
D03*
D20*
X58181Y42512D02*
D03*
Y49598D02*
D03*
D21*
X42728Y46512D02*
D03*
Y44543D02*
D03*
Y42575D02*
D03*
Y40606D02*
D03*
Y38638D02*
D03*
Y36669D02*
D03*
Y32732D02*
D03*
Y30764D02*
D03*
Y28795D02*
D03*
Y26827D02*
D03*
Y24858D02*
D03*
Y22890D02*
D03*
X47650Y22693D02*
D03*
Y25842D02*
D03*
Y27811D02*
D03*
Y29779D02*
D03*
Y31748D02*
D03*
Y33716D02*
D03*
Y35685D02*
D03*
Y37654D02*
D03*
Y39622D02*
D03*
Y41591D02*
D03*
Y43559D02*
D03*
Y46709D02*
D03*
D22*
Y20724D02*
D03*
Y48677D02*
D03*
D23*
X128150Y47201D02*
D03*
X125591D02*
D03*
X123031D02*
D03*
X120472D02*
D03*
D24*
X118504Y41197D02*
D03*
X130118D02*
D03*
D25*
X124311Y38244D02*
D03*
D26*
X87697Y48819D02*
D03*
Y42913D02*
D03*
X113976Y41240D02*
D03*
Y47146D02*
D03*
X115453Y17717D02*
D03*
Y23622D02*
D03*
D27*
X80905Y48622D02*
D03*
Y43110D02*
D03*
X75295Y48425D02*
D03*
Y42913D02*
D03*
D28*
X108169Y40650D02*
D03*
X102264D02*
D03*
X108169Y30779D02*
D03*
X102264D02*
D03*
X108165Y20685D02*
D03*
X102260D02*
D03*
X108169Y35799D02*
D03*
X102264D02*
D03*
X128642Y17717D02*
D03*
X122736D02*
D03*
D29*
X102461Y25760D02*
D03*
X107973D02*
D03*
D30*
X102580Y54516D02*
D03*
X107600Y54516D02*
D03*
X117639D02*
D03*
X112620Y54516D02*
D03*
X92541Y54516D02*
D03*
X97561Y54516D02*
D03*
X87521D02*
D03*
X82502Y54516D02*
D03*
X72462D02*
D03*
X77482Y54516D02*
D03*
X67443D02*
D03*
D31*
X157815Y26772D02*
D03*
X157815Y31791D02*
D03*
X157815Y21752D02*
D03*
X157815Y16732D02*
D03*
X157816Y48020D02*
D03*
X157816Y53039D02*
D03*
X157816Y43000D02*
D03*
X157816Y37980D02*
D03*
D32*
X57461Y15157D02*
D03*
X62480D02*
D03*
X72520D02*
D03*
X67500D02*
D03*
D33*
X102580Y55500D02*
D03*
X107600D02*
D03*
X117639D02*
D03*
X112620D02*
D03*
X92541D02*
D03*
X97561D02*
D03*
X87521D02*
D03*
X82502D02*
D03*
X72462D02*
D03*
X77482D02*
D03*
X67443D02*
D03*
X158799Y26772D02*
D03*
Y31791D02*
D03*
Y21752D02*
D03*
Y16732D02*
D03*
X158800Y48020D02*
D03*
Y53039D02*
D03*
Y43000D02*
D03*
Y37980D02*
D03*
X57461Y14173D02*
D03*
X62480D02*
D03*
X72520D02*
D03*
X67500D02*
D03*
D34*
X148917Y44623D02*
D03*
Y24938D02*
D03*
D35*
X46961Y17181D02*
D03*
Y52220D02*
D03*
D36*
X34362Y17181D02*
D03*
Y52220D02*
D03*
D37*
X110407Y51950D02*
D03*
X39037Y20165D02*
D03*
X34362Y22933D02*
D03*
X31594Y23031D02*
D03*
Y25799D02*
D03*
X34350Y25787D02*
D03*
X42028Y20079D02*
D03*
X37402Y22835D02*
D03*
X73819Y29528D02*
D03*
X68405Y28839D02*
D03*
X86221Y26378D02*
D03*
X81890D02*
D03*
X86221Y30709D02*
D03*
X81890D02*
D03*
X35473Y36812D02*
D03*
X35528Y34100D02*
D03*
X59543Y40005D02*
D03*
Y42466D02*
D03*
X57123Y39951D02*
D03*
Y42512D02*
D03*
X36614Y41732D02*
D03*
X39016Y41929D02*
D03*
X40398Y36669D02*
D03*
X45921Y33716D02*
D03*
X39370Y31496D02*
D03*
X54425Y40106D02*
D03*
Y42569D02*
D03*
X120866Y37626D02*
D03*
Y34941D02*
D03*
X124311Y34990D02*
D03*
X124409Y37555D02*
D03*
X127488D02*
D03*
Y34941D02*
D03*
X115453D02*
D03*
Y37626D02*
D03*
X118110Y34941D02*
D03*
Y37654D02*
D03*
X112697Y30315D02*
D03*
X135630Y43898D02*
D03*
X92520Y41929D02*
D03*
X131398Y28051D02*
D03*
X138779Y33858D02*
D03*
X112697Y17717D02*
D03*
X68307Y34350D02*
D03*
X108169Y44587D02*
D03*
X92815Y38465D02*
D03*
X95965Y39469D02*
D03*
X98528Y40652D02*
D03*
X97342Y25591D02*
D03*
X94488Y27559D02*
D03*
X94587Y31496D02*
D03*
M02*
