M48
;Layer_Color=9474304
;FILE_FORMAT=2:5
INCH,TZ
;TYPE=PLATED
T1F00S00C0.00787
T2F00S00C0.01181
T4F00S00C0.02362
T5F00S00C0.05118
%
T01
X81890Y26378
X86221
Y30709
X81890
T02
X31594Y23031
Y25799
X34350Y25787
X34362Y22933
X37402Y22835
X39037Y20165
X42028Y20079
X39370Y31496
X40398Y36669
X35473Y36812
X35528Y34100
X36614Y41732
X39016Y41929
X45921Y33716
X54425Y40106
Y42569
X57123Y42512
X59543Y42466
Y40005
X57123Y39951
X68307Y34350
X68405Y28839
X73819Y29528
X94488Y27559
X94587Y31496
X97342Y25591
X95965Y39469
X98528Y40652
X92520Y41929
X92815Y38465
X108169Y44587
X110407Y51950
X115453Y37626
Y34941
X118110
Y37654
X120866Y37626
Y34941
X124311Y34990
X124409Y37555
X127488
Y34941
X131398Y28051
X138779Y33858
X135630Y43898
X112697Y30315
X112697Y17717
T04
X57461Y14173
X62480
X67500
X72520
X72462Y55500
X77482
X82502
X87521
X92541
X97561
X102580
X107600
X112620
X117639
X67443
X158800Y53039
Y48020
Y43000
Y37980
X158799Y31791
Y26772
Y21752
Y16732
T05
X148917Y24938
Y44623
M30
