G04*
G04 #@! TF.GenerationSoftware,Altium Limited,Altium Designer,18.1.7 (191)*
G04*
G04 Layer_Physical_Order=2*
G04 Layer_Color=16711680*
%FSLAX25Y25*%
%MOIN*%
G70*
G01*
G75*
%ADD10C,0.00984*%
%ADD11C,0.00787*%
%ADD12C,0.01000*%
%ADD15C,0.00004*%
%ADD16C,0.00394*%
%ADD49R,0.03937X0.01968*%
%ADD50R,0.01968X0.03937*%
%ADD52C,0.00100*%
%ADD57C,0.00800*%
%ADD60P,0.08523X8X292.5*%
%ADD61O,0.07284X0.03642*%
%ADD62O,0.08071X0.04035*%
%ADD63C,0.01968*%
G36*
X112779Y50082D02*
X112779Y50082D01*
X113057Y49896D01*
X113386Y49830D01*
X131004D01*
X131004Y32972D01*
X102143D01*
Y40748D01*
X102084Y41041D01*
X101919Y41289D01*
X100281Y42927D01*
X100033Y43092D01*
X99740Y43150D01*
X93093D01*
X93040Y43186D01*
X92520Y43290D01*
X91999Y43186D01*
X91558Y42891D01*
X91263Y42450D01*
X86411Y37598D01*
X70819D01*
X68828Y35607D01*
X68307Y35711D01*
X67787Y35607D01*
X67345Y35312D01*
X67050Y34871D01*
X66947Y34350D01*
X66971Y34229D01*
X65715Y32972D01*
X47584D01*
X47233Y33472D01*
X47282Y33716D01*
X47178Y34237D01*
X46883Y34679D01*
X46442Y34973D01*
X45921Y35077D01*
X45681Y35029D01*
X43505Y37205D01*
X43259Y37370D01*
X42968Y37428D01*
X41496D01*
X41360Y37631D01*
X40918Y37926D01*
X40398Y38030D01*
X39877Y37926D01*
X39436Y37631D01*
X39141Y37190D01*
X39037Y36669D01*
X39141Y36149D01*
X39436Y35707D01*
X39877Y35412D01*
X40398Y35309D01*
X40918Y35412D01*
X41360Y35707D01*
X41496Y35911D01*
X42654D01*
X44609Y33957D01*
X44561Y33716D01*
X44609Y33472D01*
X44258Y32972D01*
X34350D01*
X34350Y49806D01*
X36380D01*
X37304Y49990D01*
X37760Y50295D01*
X44114D01*
X44293Y50176D01*
X45140Y50007D01*
X48781D01*
X49628Y50176D01*
X49808Y50295D01*
X112565D01*
X112779Y50082D01*
D02*
G37*
G36*
X158800Y55158D02*
X158800Y34679D01*
X143307D01*
X143100Y34886D01*
X143100Y55512D01*
X158446D01*
X158800Y55158D01*
D02*
G37*
G36*
X135212Y45685D02*
X135120Y45212D01*
X135064Y45125D01*
X134668Y44860D01*
X134373Y44418D01*
X134269Y43898D01*
X134373Y43377D01*
X134668Y42936D01*
X134865Y42804D01*
Y35553D01*
X130392Y31080D01*
X113791D01*
X113659Y31277D01*
X113217Y31572D01*
X112697Y31675D01*
X112176Y31572D01*
X111735Y31277D01*
X111440Y30836D01*
X111337Y30315D01*
X111440Y29794D01*
X111735Y29353D01*
X111791Y29316D01*
X111639Y28816D01*
X103270D01*
X102143Y29943D01*
Y32594D01*
X131004D01*
X131272Y32705D01*
X131383Y32972D01*
X131383Y48860D01*
X131845Y49051D01*
X135212Y45685D01*
D02*
G37*
G36*
X65087Y55512D02*
X65095Y55500D01*
Y53531D01*
X65206Y53264D01*
X65474Y53153D01*
X69411D01*
X69679Y53264D01*
X69682Y53271D01*
X70223D01*
X70226Y53264D01*
X70494Y53153D01*
X74431D01*
X74699Y53264D01*
X74701Y53270D01*
X75243D01*
X75245Y53264D01*
X75513Y53153D01*
X79450D01*
X79718Y53264D01*
X79721Y53271D01*
X80262D01*
X80265Y53264D01*
X80533Y53153D01*
X84470D01*
X84738Y53264D01*
X84741Y53270D01*
X85282D01*
X85285Y53264D01*
X85553Y53153D01*
X89490D01*
X89758Y53264D01*
X89761Y53271D01*
X90302D01*
X90305Y53264D01*
X90573Y53153D01*
X94510D01*
X94778Y53264D01*
X94780Y53270D01*
X95321D01*
X95324Y53264D01*
X95592Y53153D01*
X99529D01*
X99797Y53264D01*
X99800Y53271D01*
X100341D01*
X100344Y53264D01*
X100612Y53153D01*
X104549D01*
X104817Y53264D01*
X104820Y53271D01*
X105361D01*
X105364Y53264D01*
X105632Y53153D01*
X109569D01*
X109836Y53264D01*
X109839Y53270D01*
X110380D01*
X110383Y53264D01*
X110651Y53153D01*
X111778D01*
Y51438D01*
X111778Y51438D01*
X111830Y51174D01*
X111780Y51021D01*
X111533Y50674D01*
X49808D01*
X49706Y50632D01*
X49597Y50610D01*
X49481Y50532D01*
X48744Y50386D01*
X45177D01*
X44441Y50532D01*
X44324Y50610D01*
X44216Y50632D01*
X44114Y50674D01*
X37760D01*
X37658Y50632D01*
X37550Y50610D01*
X37156Y50347D01*
X36343Y50185D01*
X34350D01*
X34082Y50074D01*
X33972Y49806D01*
X33972Y32972D01*
X34082Y32705D01*
X34350Y32594D01*
X37897D01*
X38165Y32094D01*
X38113Y32017D01*
X38010Y31496D01*
X38113Y30975D01*
X38408Y30534D01*
X38849Y30239D01*
X39370Y30136D01*
X39492Y30160D01*
X39550Y30101D01*
X39550Y30101D01*
X39829Y29915D01*
X40157Y29850D01*
X40157Y29850D01*
X64665D01*
X64665Y29850D01*
X64994Y29915D01*
X65272Y30101D01*
X66987Y31816D01*
X67449Y31624D01*
Y29804D01*
X67444Y29801D01*
X67149Y29359D01*
X67045Y28839D01*
X67149Y28318D01*
X67444Y27877D01*
X67512Y27831D01*
X67514Y27821D01*
X67700Y27542D01*
X67979Y27356D01*
X68307Y27291D01*
X68636Y27356D01*
X68914Y27542D01*
X69009Y27637D01*
X69367Y27877D01*
X69662Y28318D01*
X69766Y28839D01*
X69662Y29359D01*
X69367Y29801D01*
X69166Y29935D01*
Y32710D01*
X69546Y32972D01*
X93495D01*
X93646Y32472D01*
X93625Y32458D01*
X93330Y32017D01*
X93226Y31496D01*
X93330Y30975D01*
X93625Y30534D01*
X94066Y30239D01*
X94587Y30136D01*
X95107Y30239D01*
X95338Y30394D01*
X95883Y30227D01*
X95899Y30213D01*
X95931Y30084D01*
X94721Y28873D01*
X94488Y28920D01*
X93968Y28816D01*
X93526Y28521D01*
X93231Y28080D01*
X93128Y27559D01*
X93231Y27038D01*
X93526Y26597D01*
X93968Y26302D01*
X94488Y26199D01*
X95009Y26302D01*
X95450Y26597D01*
X95745Y27038D01*
X95849Y27559D01*
X95802Y27792D01*
X97015Y29004D01*
X97546Y28828D01*
X97581Y28584D01*
X96802Y27804D01*
X96636Y27556D01*
X96578Y27264D01*
Y26684D01*
X96381Y26553D01*
X96086Y26111D01*
X95982Y25591D01*
X96086Y25070D01*
X96381Y24629D01*
X96822Y24334D01*
X97342Y24230D01*
X97863Y24334D01*
X98304Y24629D01*
X98599Y25070D01*
X98703Y25591D01*
X98599Y26111D01*
X98304Y26553D01*
X98281Y27121D01*
X99069Y27909D01*
X99069Y27909D01*
X99235Y28157D01*
X99293Y28450D01*
X99293Y28450D01*
Y39558D01*
X99490Y39690D01*
X99785Y40131D01*
X99827Y40341D01*
X100315Y40539D01*
X100548Y40371D01*
X100613Y40286D01*
Y29626D01*
X100672Y29333D01*
X100837Y29085D01*
X102412Y27510D01*
X102660Y27345D01*
X102953Y27286D01*
X102953Y27286D01*
X130304D01*
X130436Y27089D01*
X130877Y26794D01*
X131398Y26691D01*
X131918Y26794D01*
X132360Y27089D01*
X132655Y27531D01*
X132758Y28051D01*
X132655Y28572D01*
X132360Y29013D01*
X131918Y29308D01*
X131543Y29383D01*
X131505Y29434D01*
X131370Y29811D01*
X131364Y29889D01*
X136171Y34696D01*
X136336Y34944D01*
X136395Y35236D01*
Y42436D01*
X136541Y42594D01*
X136726Y42563D01*
X137041Y42302D01*
Y21356D01*
X134344Y18659D01*
X133831D01*
X133762Y18762D01*
X133321Y19057D01*
X132800Y19160D01*
X132279Y19057D01*
X131838Y18762D01*
X131543Y18321D01*
X131440Y17800D01*
X131543Y17279D01*
X131838Y16838D01*
X132279Y16543D01*
X132800Y16440D01*
X133321Y16543D01*
X133762Y16838D01*
X133831Y16941D01*
X134700D01*
X134700Y16941D01*
X135029Y17007D01*
X135307Y17193D01*
X138507Y20393D01*
X138507Y20393D01*
X138693Y20671D01*
X138759Y21000D01*
Y44210D01*
X138693Y44539D01*
X138507Y44818D01*
X138507Y44818D01*
X132029Y51296D01*
X131750Y51482D01*
X131421Y51548D01*
X131421Y51548D01*
X113742D01*
X113495Y51794D01*
Y53153D01*
X114588D01*
X114856Y53264D01*
X114967Y53531D01*
Y55012D01*
X115462Y55512D01*
X142721D01*
X142721Y34886D01*
X142721Y34885D01*
X142721Y34885D01*
X142777Y34750D01*
X142832Y34618D01*
X142832Y34618D01*
X142832Y34617D01*
X143040Y34411D01*
X143173Y34356D01*
X143307Y34300D01*
X158799D01*
X158799Y14173D01*
X69847Y14173D01*
X69847Y14173D01*
Y16142D01*
X69736Y16410D01*
X69468Y16521D01*
X65531D01*
X65264Y16410D01*
X65261Y16403D01*
X64720D01*
X64717Y16410D01*
X64449Y16521D01*
X60512D01*
X60244Y16410D01*
X60241Y16402D01*
X59700D01*
X59697Y16410D01*
X59429Y16521D01*
X55492D01*
X55224Y16410D01*
X55113Y16142D01*
Y14673D01*
X54613Y14173D01*
X28937D01*
X28346Y14764D01*
X28346Y55512D01*
X65087D01*
D02*
G37*
D10*
X112620Y55500D02*
X112636Y55483D01*
Y51438D02*
Y55483D01*
X131421Y50689D02*
X137900Y44210D01*
Y21000D02*
Y44210D01*
X134700Y17800D02*
X137900Y21000D01*
X132800Y17800D02*
X134700D01*
X113386Y50689D02*
X131421D01*
X112636Y51438D02*
X113386Y50689D01*
X68405Y28248D02*
Y28839D01*
X68307Y28150D02*
X68405Y28248D01*
X68307Y28150D02*
Y34350D01*
X148917Y26476D02*
Y27264D01*
X40157Y30709D02*
X64665D01*
X39370Y31496D02*
X40157Y30709D01*
X64665D02*
X68307Y34350D01*
D11*
X40398Y36669D02*
X42968D01*
X45921Y33716D01*
D12*
X158799Y14252D02*
Y55512D01*
X28373Y14173D02*
X158720D01*
X28400Y55512D02*
X158799D01*
X28400Y14200D02*
Y55512D01*
D15*
X49815Y17181D02*
G03*
X48929Y18067I-886J0D01*
G01*
Y16295D02*
G03*
X49815Y17181I0J886D01*
G01*
X44106D02*
G03*
X44992Y16295I886J0D01*
G01*
Y18067D02*
G03*
X44106Y17181I0J-886D01*
G01*
X49815Y52220D02*
G03*
X48929Y53106I-886J0D01*
G01*
Y51335D02*
G03*
X49815Y52220I0J886D01*
G01*
X44106D02*
G03*
X44992Y51335I886J0D01*
G01*
Y53106D02*
G03*
X44106Y52220I0J-886D01*
G01*
X37610Y17181D02*
G03*
X36724Y18067I-886J0D01*
G01*
Y16295D02*
G03*
X37610Y17181I0J886D01*
G01*
X31114D02*
G03*
X32000Y16295I886J0D01*
G01*
Y18067D02*
G03*
X31114Y17181I0J-886D01*
G01*
X37610Y52220D02*
G03*
X36724Y53106I-886J0D01*
G01*
Y51335D02*
G03*
X37610Y52220I0J886D01*
G01*
X31114D02*
G03*
X32000Y51335I886J0D01*
G01*
Y53106D02*
G03*
X31114Y52220I0J-886D01*
G01*
X44992Y16295D02*
X48929D01*
X44992Y18067D02*
X48929D01*
X44992Y51335D02*
X48929D01*
X44992Y53106D02*
X48929D01*
X32000Y16295D02*
X36724D01*
X32000Y18067D02*
X36724D01*
X32000Y51335D02*
X36724D01*
X32000Y53106D02*
X36724D01*
D16*
X137913Y31009D02*
X139487D01*
X138700Y30221D02*
Y31796D01*
D49*
X102580Y54516D02*
D03*
X107600Y54516D02*
D03*
X117639D02*
D03*
X112620Y54516D02*
D03*
X92541Y54516D02*
D03*
X97561Y54516D02*
D03*
X87521D02*
D03*
X82502Y54516D02*
D03*
X72462D02*
D03*
X77482Y54516D02*
D03*
X67443D02*
D03*
X57461Y15157D02*
D03*
X62480D02*
D03*
X72520D02*
D03*
X67500D02*
D03*
D50*
X157815Y26772D02*
D03*
X157815Y31791D02*
D03*
X157815Y21752D02*
D03*
X157815Y16732D02*
D03*
X157816Y48020D02*
D03*
X157816Y53039D02*
D03*
X157816Y43000D02*
D03*
X157816Y37980D02*
D03*
D52*
X102580Y55500D02*
D03*
X107600D02*
D03*
X117639D02*
D03*
X112620D02*
D03*
X92541D02*
D03*
X97561D02*
D03*
X87521D02*
D03*
X82502D02*
D03*
X72462D02*
D03*
X77482D02*
D03*
X67443D02*
D03*
X158799Y26772D02*
D03*
Y31791D02*
D03*
Y21752D02*
D03*
Y16732D02*
D03*
X158800Y48020D02*
D03*
Y53039D02*
D03*
Y43000D02*
D03*
Y37980D02*
D03*
X57461Y14173D02*
D03*
X62480D02*
D03*
X72520D02*
D03*
X67500D02*
D03*
D57*
X135630Y35236D02*
Y43898D01*
X130709Y30315D02*
X135630Y35236D01*
X112697Y30315D02*
X130709D01*
X102953Y28051D02*
X131398D01*
X101378Y29626D02*
X102953Y28051D01*
X101378Y29626D02*
Y40748D01*
X99740Y42386D02*
X101378Y40748D01*
X92976Y42386D02*
X99740D01*
X92520Y41929D02*
X92976Y42386D01*
X98528Y28450D02*
Y40652D01*
X97342Y27264D02*
X98528Y28450D01*
X97342Y25591D02*
Y27264D01*
X94488Y27559D02*
X96918Y29989D01*
Y35988D01*
X95965Y36941D02*
X96918Y35988D01*
X95965Y36941D02*
Y39469D01*
X95768Y32677D02*
Y35512D01*
X92815Y38465D02*
X95768Y35512D01*
X94587Y31496D02*
X95768Y32677D01*
D60*
X148917Y44623D02*
D03*
Y24938D02*
D03*
D61*
X46961Y17181D02*
D03*
Y52220D02*
D03*
D62*
X34362Y17181D02*
D03*
Y52220D02*
D03*
D63*
X132800Y17800D02*
D03*
X110407Y51950D02*
D03*
X39037Y20165D02*
D03*
X34362Y22933D02*
D03*
X31594Y23031D02*
D03*
Y25799D02*
D03*
X34350Y25787D02*
D03*
X42028Y20079D02*
D03*
X37402Y22835D02*
D03*
X73819Y29528D02*
D03*
X68405Y28839D02*
D03*
X86221Y26378D02*
D03*
X81890D02*
D03*
X86221Y30709D02*
D03*
X81890D02*
D03*
X35473Y36812D02*
D03*
X35528Y34100D02*
D03*
X59543Y40005D02*
D03*
Y42466D02*
D03*
X57123Y39951D02*
D03*
Y42512D02*
D03*
X36614Y41732D02*
D03*
X39016Y41929D02*
D03*
X40398Y36669D02*
D03*
X45921Y33716D02*
D03*
X39370Y31496D02*
D03*
X54425Y40106D02*
D03*
Y42569D02*
D03*
X120866Y37626D02*
D03*
Y34941D02*
D03*
X124311Y34990D02*
D03*
X124409Y37555D02*
D03*
X127488D02*
D03*
Y34941D02*
D03*
X115453D02*
D03*
Y37626D02*
D03*
X118110Y34941D02*
D03*
Y37654D02*
D03*
X112697Y30315D02*
D03*
X135630Y43898D02*
D03*
X92520Y41929D02*
D03*
X131398Y28051D02*
D03*
X112697Y17717D02*
D03*
X68307Y34350D02*
D03*
X108169Y44587D02*
D03*
X92815Y38465D02*
D03*
X95965Y39469D02*
D03*
X98528Y40652D02*
D03*
X97342Y25591D02*
D03*
X94488Y27559D02*
D03*
X94587Y31496D02*
D03*
M02*
