M48
;Layer_Color=9474304
;FILE_FORMAT=2:5
INCH,TZ
;TYPE=PLATED
T1F00S00C0.00787
T2F00S00C0.01181
T4F00S00C0.02362
T5F00S00C0.05118
%
T01
X81890Y26378
Y30709
X86221
Y26378
T02
X39370Y31496
X40398Y36669
X39016Y41929
X36614Y41732
X45921Y33716
X54425Y40106
Y42569
X57123Y42512
Y39951
X68307Y34350
X71260Y27559
X94488
X94587Y31496
X97342Y25591
X95965Y39469
X98528Y40652
X92520Y41929
X92815Y38465
X108169Y44587
X115453Y37626
Y34941
X118110
Y37654
X120866Y37626
Y34941
X124311Y34990
X124409Y37555
X127488
Y34941
X131398Y28051
X138779Y33858
X135630Y43898
X112697Y30315
X112697Y17717
T04
X57520Y14173
X62520
X67520
X72520
X71732Y55413
X76732
X81732
X86732
X91732
X96732
X101732
X106732
X111732
X116732
X66732
T05
X148917Y26476
Y46161
M30
